<svg width="41" height="41" viewBox="0 0 41 41" fill="none" xmlns="http://www.w3.org/2000/svg">
<g clip-path="url(#clip0_26_2964)">
<path d="M33.3203 26.674C32.3429 26.674 31.4143 27.0568 30.7139 27.7492C30.0134 28.4496 29.6224 29.3619 29.6224 30.3393C29.6224 31.3167 30.0053 32.2289 30.7139 32.9294C31.4225 33.6217 32.3429 34.0045 33.3203 34.0045C35.3239 34.0045 36.9529 32.3592 36.9529 30.3393C36.9529 28.3193 35.3239 26.674 33.3203 26.674ZM33.3203 32.3755C32.1963 32.3755 31.2514 31.447 31.2514 30.3393C31.2514 29.2315 32.1963 28.303 33.3203 28.303C34.428 28.303 35.3239 29.2153 35.3239 30.3393C35.3239 31.4633 34.428 32.3755 33.3203 32.3755ZM34.2651 14.4647C34.1185 14.3262 33.923 14.2529 33.7194 14.2529H29.541C29.093 14.2529 28.7265 14.6194 28.7265 15.0674V21.7463C28.7265 22.1943 29.093 22.5608 29.541 22.5608H36.171C36.619 22.5608 36.9855 22.1943 36.9855 21.7463V17.2747C36.9855 17.0466 36.8878 16.8267 36.7167 16.672L34.2651 14.4647ZM35.3565 20.9318H30.3555V15.8738H33.4017L35.3565 17.6331V20.9318ZM13.4302 26.674C12.4528 26.674 11.5243 27.0568 10.8238 27.7492C10.1234 28.4496 9.7324 29.3619 9.7324 30.3393C9.7324 31.3167 10.1152 32.2289 10.8238 32.9294C11.5324 33.6217 12.4528 34.0045 13.4302 34.0045C15.4339 34.0045 17.0629 32.3592 17.0629 30.3393C17.0629 28.3193 15.4339 26.674 13.4302 26.674ZM13.4302 32.3755C12.3062 32.3755 11.3614 31.447 11.3614 30.3393C11.3614 29.2315 12.3062 28.303 13.4302 28.303C14.5379 28.303 15.4339 29.2153 15.4339 30.3393C15.4339 31.4633 14.5379 32.3755 13.4302 32.3755ZM7.99752 27.6758H6.36038V25.5093C6.36038 25.0613 5.99385 24.6948 5.54588 24.6948C5.0979 24.6948 4.73138 25.0613 4.73138 25.5093V28.4903C4.73138 28.9383 5.0979 29.3048 5.54588 29.3048H7.99752C8.44549 29.3048 8.81201 28.9383 8.81201 28.4903C8.81201 28.0424 8.44549 27.6758 7.99752 27.6758ZM12.127 23.2368C12.127 22.7889 11.7605 22.4223 11.3125 22.4223H1.43266C0.984688 22.4223 0.618164 22.7889 0.618164 23.2368C0.618164 23.6848 0.984688 24.0513 1.43266 24.0513H11.3125C11.7605 24.0513 12.127 23.693 12.127 23.2368ZM3.08609 20.2965L12.966 20.3535C13.4139 20.3535 13.7805 19.9951 13.7886 19.5472C13.7967 19.091 13.4302 18.7245 12.9822 18.7245L3.10238 18.6675C3.09424 18.6675 3.09424 18.6675 3.09424 18.6675C2.64626 18.6675 2.27974 19.0259 2.27974 19.4739C2.2716 19.93 2.63812 20.2965 3.08609 20.2965ZM4.74767 16.5987H14.6275C15.0755 16.5987 15.442 16.2322 15.442 15.7842C15.442 15.3362 15.0755 14.9697 14.6275 14.9697H4.74767C4.2997 14.9697 3.93317 15.3362 3.93317 15.7842C3.93317 16.2322 4.2997 16.5987 4.74767 16.5987ZM40.3168 15.4991L34.485 10.6691C34.3384 10.547 34.1592 10.4818 33.9637 10.4818H27.1056V7.54961C27.1056 7.10163 26.7391 6.73511 26.2911 6.73511H5.54588C5.0979 6.73511 4.73138 7.10163 4.73138 7.54961V13.5117C4.73138 13.9597 5.0979 14.3262 5.54588 14.3262C5.99385 14.3262 6.36038 13.9597 6.36038 13.5117V8.3641H25.4848V27.6758H18.8059C18.3579 27.6758 17.9914 28.0424 17.9914 28.4903C17.9914 28.9383 18.3579 29.3048 18.8059 29.3048H28.7509C29.1989 29.3048 29.5654 28.9383 29.5654 28.4903C29.5654 28.0424 29.1989 27.6758 28.7509 27.6758H27.1138V12.1108H33.6786L38.9892 16.5091L38.9322 27.6596H38.0851C37.6371 27.6596 37.2706 28.0261 37.2706 28.4741C37.2706 28.922 37.6371 29.2886 38.0851 29.2886H39.7385C40.1865 29.2886 40.553 28.9302 40.553 28.4822L40.6182 16.1344C40.61 15.8901 40.5041 15.6539 40.3168 15.4991Z" fill="#00B307"/>
</g>
<defs>
<clipPath id="clip0_26_2964">
<rect width="40" height="40" fill="white" transform="translate(0.618164 0.369751)"/>
</clipPath>
</defs>
</svg>
