<svg width="41" height="41" viewBox="0 0 41 41" fill="none" xmlns="http://www.w3.org/2000/svg">
<g clip-path="url(#clip0_26_2946)">
<path d="M31.7566 17.411C31.5963 16.9164 31.1767 16.5628 30.6621 16.4881L24.5618 15.6016L21.8338 10.0743C21.6041 9.60776 21.1382 9.31799 20.618 9.31799C20.098 9.31799 19.632 9.60776 19.4024 10.0739L16.6741 15.6016L10.5738 16.4881C10.0595 16.5628 9.64016 16.9162 9.4793 17.4109C9.31898 17.9048 9.45031 18.4371 9.82242 18.8004L14.2369 23.1031L13.1948 29.1787C13.1067 29.691 13.3132 30.1991 13.7338 30.5048C13.9715 30.6776 14.2496 30.7654 14.5295 30.7653C14.745 30.7653 14.9616 30.7133 15.1616 30.6081L20.618 27.7396L26.0741 30.6082C26.2677 30.7099 26.4859 30.7638 26.7047 30.7638C26.9931 30.7638 27.2687 30.6742 27.5019 30.5048C27.9218 30.1994 28.1285 29.6915 28.0409 29.179L27.6287 26.7753C27.5697 26.4315 27.2429 26.2006 26.8995 26.2596C26.5556 26.3185 26.3248 26.6451 26.3837 26.9889L26.7959 29.3921C26.8018 29.4268 26.7873 29.4626 26.7591 29.4831C26.7172 29.5136 26.6868 29.5033 26.6616 29.49L20.9116 26.4671C20.7277 26.3704 20.508 26.3703 20.3238 26.4671L14.5732 29.4902C14.5425 29.5064 14.5043 29.5035 14.4761 29.4831C14.4474 29.4622 14.4333 29.4277 14.4393 29.3925L15.5376 22.9895C15.5728 22.7845 15.5049 22.5755 15.356 22.4304L10.7041 17.8962C10.6789 17.8716 10.6695 17.8342 10.6802 17.8013C10.6911 17.7679 10.7205 17.7431 10.7551 17.7381L17.1841 16.8039C17.3898 16.7739 17.5677 16.6448 17.6597 16.4583L20.5351 10.6324C20.5663 10.5691 20.6691 10.5685 20.7006 10.6328L23.5759 16.4583C23.6679 16.6447 23.8458 16.7739 24.0515 16.8039L30.4805 17.7381C30.5151 17.7431 30.5443 17.7677 30.5552 17.8015C30.566 17.8346 30.5567 17.8717 30.5317 17.896L25.8797 22.4304C25.7309 22.5755 25.6629 22.7846 25.6981 22.9895L26.0452 25.0125C26.104 25.3563 26.4307 25.5872 26.7743 25.5282C27.1181 25.4692 27.3491 25.1427 27.29 24.7989L26.9991 23.1031L31.4136 18.8002C31.7859 18.4371 31.9173 17.9046 31.7566 17.411Z" fill="#00B307" stroke="#00B307" stroke-width="0.3"/>
<path d="M4.24957 19.4094H1.24973C0.900898 19.4094 0.618164 19.6922 0.618164 20.041C0.618164 20.3898 0.900898 20.6725 1.24973 20.6725H4.24957C4.59848 20.6725 4.88113 20.3897 4.88113 20.041C4.88113 19.6922 4.5984 19.4094 4.24957 19.4094Z" fill="#00B307" stroke="#00B307" stroke-width="0.3"/>
<path d="M39.9859 19.4094H36.986C36.6371 19.4094 36.3545 19.6922 36.3545 20.041C36.3545 20.3898 36.6372 20.6725 36.986 20.6725H39.9859C40.3348 20.6725 40.6174 20.3897 40.6174 20.041C40.6174 19.6922 40.3348 19.4094 39.9859 19.4094Z" fill="#00B307" stroke="#00B307" stroke-width="0.3"/>
<path d="M8.59724 31.1685L6.47606 33.2896C6.22935 33.5362 6.22935 33.9361 6.47599 34.1827C6.59935 34.3061 6.76099 34.3677 6.92263 34.3677C7.08419 34.3677 7.24591 34.3061 7.36911 34.1828L9.49028 32.0616C9.737 31.8151 9.737 31.4151 9.49036 31.1685C9.24372 30.9219 8.8438 30.9219 8.59724 31.1685Z" fill="#00B307" stroke="#00B307" stroke-width="0.3"/>
<path d="M33.8668 5.89845L31.7456 8.01954C31.4989 8.26618 31.4989 8.6661 31.7455 8.91274C31.8689 9.0361 32.0305 9.09774 32.1922 9.09774C32.3538 9.09774 32.5154 9.0361 32.6386 8.91267L34.7599 6.79157C35.0066 6.54501 35.0066 6.14509 34.7599 5.89845C34.5133 5.65173 34.1134 5.65165 33.8668 5.89845Z" fill="#00B307" stroke="#00B307" stroke-width="0.3"/>
<path d="M20.6179 35.7784C20.269 35.7784 19.9863 36.0613 19.9863 36.41V39.4098C19.9863 39.7586 20.2691 40.0413 20.6179 40.0413C20.9668 40.0413 21.2494 39.7585 21.2494 39.4098V36.41C21.2494 36.0612 20.9668 35.7784 20.6179 35.7784Z" fill="#00B307" stroke="#00B307" stroke-width="0.3"/>
<path d="M20.6179 4.30398C20.9668 4.30398 21.2494 4.02117 21.2494 3.67242V0.672578C21.2494 0.32375 20.9667 0.0410156 20.6179 0.0410156C20.269 0.0410156 19.9863 0.323828 19.9863 0.672578V3.67242C19.9863 4.02125 20.269 4.30398 20.6179 4.30398Z" fill="#00B307" stroke="#00B307" stroke-width="0.3"/>
<path d="M32.6386 31.1684C32.3922 30.9217 31.9922 30.9217 31.7455 31.1684C31.4989 31.4149 31.4989 31.8149 31.7456 32.0615L33.8668 34.1827C33.9901 34.3061 34.1518 34.3677 34.3134 34.3677C34.4749 34.3677 34.6367 34.3061 34.7599 34.1826C35.0066 33.936 35.0066 33.5361 34.7599 33.2895L32.6386 31.1684Z" fill="#00B307" stroke="#00B307" stroke-width="0.3"/>
<path d="M8.59716 8.91291C8.72052 9.03627 8.88216 9.09791 9.0438 9.09791C9.20536 9.09791 9.36708 9.03627 9.49036 8.91306C9.737 8.66642 9.737 8.2665 9.49036 8.01986L7.3692 5.8986C7.12263 5.65196 6.72279 5.65196 6.476 5.8986C6.22936 6.14517 6.22936 6.54509 6.476 6.79173L8.59716 8.91291Z" fill="#00B307" stroke="#00B307" stroke-width="0.3"/>
</g>
<defs>
<clipPath id="clip0_26_2946">
<rect width="40" height="40" fill="white" transform="translate(0.618164 0.0408936)"/>
</clipPath>
</defs>
</svg>
