<svg width="37" height="37" viewBox="0 0 37 37" fill="none" xmlns="http://www.w3.org/2000/svg">
<g clip-path="url(#clip0_26_2971)">
<path d="M31.2609 14.3004V12.9164C31.2609 9.60377 30.0886 6.52561 27.9634 4.24158C25.7852 1.89704 22.7903 0.611328 19.5231 0.611328H18.381C15.1138 0.611328 12.1188 1.89704 9.9407 4.24158C7.81549 6.52561 6.64322 9.60377 6.64322 12.9164V14.3004C4.06423 14.4744 2.01465 16.6223 2.01465 19.2466V21.4096C2.01465 24.1399 4.23818 26.3634 6.96843 26.3634H9.75919C10.2583 26.3634 10.6667 25.955 10.6667 25.4559V15.1928C10.6667 14.6937 10.2583 14.2853 9.75919 14.2853H8.45835V12.9164C8.45835 6.93402 12.7239 2.42645 18.3735 2.42645H19.5155C25.1726 2.42645 29.4306 6.93402 29.4306 12.9164V14.2853H28.1298C27.6306 14.2853 27.2222 14.6937 27.2222 15.1928V25.4483C27.2222 25.9475 27.6306 26.3559 28.1298 26.3559H29.4004C29.0298 31.0903 25.7701 32.187 24.2575 32.4365C23.8415 31.1584 22.639 30.2357 21.2247 30.2357H18.9558C17.2012 30.2357 15.7718 31.6651 15.7718 33.4197C15.7718 35.1744 17.2012 36.6113 18.9558 36.6113H21.2323C22.6995 36.6113 23.9323 35.613 24.3029 34.2668C25.0441 34.1609 26.2163 33.8962 27.381 33.2155C29.0222 32.255 30.9659 30.2962 31.2231 26.3483C33.8172 26.1895 35.8743 24.034 35.8743 21.4021V19.2391C35.8819 16.6223 33.8399 14.4668 31.2609 14.3004ZM8.86675 24.5407H6.98356C5.25162 24.5407 3.8449 23.134 3.8449 21.4021V19.2391C3.8449 17.5071 5.25162 16.1004 6.98356 16.1004H8.86675V24.5407ZM21.2323 34.7962H18.9558C18.1995 34.7962 17.5869 34.1836 17.5869 33.4273C17.5869 32.671 18.1995 32.0584 18.9558 32.0584H21.2323C21.9886 32.0584 22.6012 32.671 22.6012 33.4273C22.6012 34.1836 21.9886 34.7962 21.2323 34.7962ZM34.0668 21.4021C34.0668 23.134 32.66 24.5407 30.9281 24.5407H29.0449V16.1004H30.9281C32.66 16.1004 34.0668 17.5071 34.0668 19.2391V21.4021Z" fill="#00B307"/>
</g>
<defs>
<clipPath id="clip0_26_2971">
<rect width="36" height="36" fill="white" transform="translate(0.944336 0.611328)"/>
</clipPath>
</defs>
</svg>
