<svg width="37" height="37" viewBox="0 0 37 37" fill="none" xmlns="http://www.w3.org/2000/svg">
<g clip-path="url(#clip0_26_2979)">
<path d="M33.3267 32.1412L31.2551 8.79446C31.2179 8.33244 30.8304 7.98221 30.3609 7.98221H25.9941C25.9866 4.09978 22.827 0.940186 18.9446 0.940186C15.0622 0.940186 11.9026 4.09978 11.8951 7.98221H7.52835C7.06633 7.98221 6.67883 8.33244 6.63412 8.79446L4.5625 32.1412C4.5625 32.171 4.5625 32.1933 4.5625 32.2231C4.5625 34.8239 6.95455 36.9402 9.89059 36.9402H27.9986C30.9347 36.9402 33.3267 34.8239 33.3267 32.2231C33.3267 32.1933 33.3267 32.171 33.3267 32.1412ZM18.9446 2.72864C21.8434 2.72864 24.1982 5.08343 24.2056 7.98221H13.6836C13.691 5.08343 16.0458 2.72864 18.9446 2.72864ZM27.9986 35.1443H9.89059C7.9531 35.1443 6.37331 33.8551 6.35095 32.253L8.34805 9.77066H11.8951V12.9079C11.8951 13.3997 12.2975 13.8021 12.7894 13.8021C13.2812 13.8021 13.6836 13.3997 13.6836 12.9079V9.77066H24.2056V12.9079C24.2056 13.3997 24.608 13.8021 25.0999 13.8021C25.5917 13.8021 25.9941 13.3997 25.9941 12.9079V9.77066H29.5412L31.5383 32.2604C31.5159 33.8551 29.9361 35.1443 27.9986 35.1443Z" fill="#00B307"/>
<path d="M22.6631 19.5549L17.3872 24.8309L15.2336 22.6773C14.8834 22.327 14.317 22.327 13.9668 22.6773C13.6165 23.0275 13.6165 23.5939 13.9668 23.9441L16.7538 26.7311C16.9252 26.9025 17.1562 26.9919 17.3872 26.9919C17.6182 26.9919 17.8417 26.9025 18.0206 26.7311L23.9299 20.8218C24.2802 20.4715 24.2802 19.9052 23.9299 19.5549C23.5797 19.2122 23.0133 19.2122 22.6631 19.5549Z" fill="#00B307"/>
</g>
<defs>
<clipPath id="clip0_26_2979">
<rect width="36" height="36" fill="white" transform="translate(0.944336 0.940186)"/>
</clipPath>
</defs>
</svg>
