<svg width="41" height="41" viewBox="0 0 41 41" fill="none" xmlns="http://www.w3.org/2000/svg">
<g clip-path="url(#clip0_26_2937)">
<path d="M37.1081 1.25086C37.0549 1.05507 36.9223 0.890327 36.7423 0.79655C36.3871 0.608593 35.9467 0.744183 35.7587 1.09939C35.7582 1.1003 35.7577 1.1012 35.7573 1.10211C35.7573 1.12221 32.0705 8.27463 20.7528 9.52098C19.2765 9.67848 17.8335 10.0636 16.4751 10.6628C14.0436 11.7199 12.0355 13.5596 10.77 15.8894C9.58859 18.0779 9.0993 20.5734 9.36686 23.0459C9.56397 24.8482 10.1659 26.5828 11.1278 28.1197C9.11759 29.563 2.74112 34.5525 2.16619 39.9077C2.12398 40.3074 2.41385 40.6656 2.81349 40.7078C3.21323 40.75 3.57135 40.4601 3.61356 40.0605C4.14025 35.2802 10.1227 30.6445 11.9882 29.3017C14.2276 32.0517 17.5807 33.6036 21.179 33.8569C23.6008 34.0132 26.0256 33.6002 28.2591 32.6508C30.6836 31.6335 32.8249 30.0427 34.4988 28.0152C38.8128 22.7885 40.8673 14.0038 37.1081 1.25086ZM12.4063 27.4C12.1289 26.9631 11.8844 26.5062 11.6746 26.0331C11.2332 25.0347 10.9484 23.9743 10.8303 22.8891C10.5841 20.7115 11.0046 18.5104 12.0365 16.5769C13.1517 14.5271 14.9208 12.9094 17.0621 11.9815C18.2862 11.4485 19.5854 11.1082 20.9137 10.9724C28.3837 10.1683 32.7781 6.84334 35.0456 4.43106C33.7133 8.81729 31.4196 12.8512 28.3314 16.2392L27.8892 11.7845C27.8667 11.3833 27.5231 11.0762 27.1219 11.0987C26.7206 11.1212 26.4136 11.4648 26.4361 11.866C26.4372 11.8858 26.4391 11.9056 26.4418 11.9252L27.0087 17.6504C23.6275 21.0798 18.9275 24.5254 12.4063 27.4ZM33.3731 27.0824V27.0864C31.8522 28.9382 29.9039 30.3925 27.6962 31.324C25.666 32.182 23.4624 32.5511 21.2634 32.4015C18.2022 32.2464 15.3294 30.8758 13.2828 28.5941C15.6812 27.5328 18.0002 26.3007 20.2221 24.9073L26.6107 26.1135C27.0077 26.1757 27.38 25.9042 27.4422 25.5072C27.5022 25.1242 27.2514 24.7614 26.872 24.6822L21.963 23.7535C24.2297 22.1967 26.3396 20.4234 28.2631 18.4585C28.2984 18.4281 28.3306 18.3945 28.3596 18.358C33.4334 13.0751 35.5924 7.84846 36.493 4.63208C38.9777 15.2301 37.076 22.6036 33.3731 27.0824Z" fill="#00B307"/>
</g>
<defs>
<clipPath id="clip0_26_2937">
<rect width="40" height="40" fill="white" transform="translate(0.618164 0.711914)"/>
</clipPath>
</defs>
</svg>
