<svg width="37" height="37" viewBox="0 0 37 37" fill="none" xmlns="http://www.w3.org/2000/svg">
<g clip-path="url(#clip0_26_2989)">
<path d="M35.5009 8.75605C35.5009 8.61928 35.4706 8.48251 35.4098 8.35334C35.2882 8.09501 35.0527 7.92025 34.7943 7.86706L19.3169 0.360099C19.0662 0.238528 18.7698 0.238528 18.5191 0.360099L2.88972 7.93545C2.58579 8.07981 2.38824 8.38374 2.37305 8.72565V8.73325C2.37305 8.74085 2.37305 8.74845 2.37305 8.76365V27.7742C2.37305 28.1237 2.5706 28.4428 2.88972 28.5948L18.5191 36.1701C18.5267 36.1701 18.5267 36.1701 18.5343 36.1777C18.5571 36.1853 18.5799 36.1929 18.6027 36.2081C18.6103 36.2081 18.6179 36.2157 18.6331 36.2157C18.6559 36.2233 18.6787 36.2309 18.7015 36.2385C18.7091 36.2385 18.7167 36.2461 18.7243 36.2461C18.747 36.2537 18.7774 36.2537 18.8002 36.2613C18.8078 36.2613 18.8154 36.2613 18.823 36.2613C18.8534 36.2613 18.8914 36.2689 18.9218 36.2689C18.9522 36.2689 18.9902 36.2689 19.0206 36.2613C19.0282 36.2613 19.0358 36.2613 19.0434 36.2613C19.0662 36.2613 19.0966 36.2537 19.1194 36.2461C19.127 36.2461 19.1346 36.2385 19.1421 36.2385C19.1649 36.2309 19.1877 36.2233 19.2105 36.2157C19.2181 36.2157 19.2257 36.2081 19.2409 36.2081C19.2637 36.2005 19.2865 36.1929 19.3093 36.1777C19.3169 36.1777 19.3169 36.1777 19.3245 36.1701L34.9995 28.572C35.311 28.42 35.5161 28.1009 35.5161 27.7514V8.77884C35.5009 8.77124 35.5009 8.76364 35.5009 8.75605ZM18.9142 2.19125L32.4693 8.76365L27.4773 11.1875L13.9222 4.61506L18.9142 2.19125ZM18.9142 15.336L5.35912 8.76365L11.8327 5.62561L25.3878 12.198L18.9142 15.336ZM4.1966 10.2301L18.0024 16.924V33.8907L4.1966 27.1967V10.2301ZM19.826 33.8907V16.924L26.3072 13.7784V18.2157C26.3072 18.7172 26.7175 19.1275 27.219 19.1275C27.7205 19.1275 28.1308 18.7172 28.1308 18.2157V12.8894L33.6774 10.1997V27.1663L19.826 33.8907Z" fill="#00B307"/>
</g>
<defs>
<clipPath id="clip0_26_2989">
<rect width="36" height="36" fill="white" transform="translate(0.944336 0.268921)"/>
</clipPath>
</defs>
</svg>
