<svg width="12" height="11" viewBox="0 0 12 11" fill="none" xmlns="http://www.w3.org/2000/svg">
<rect width="11" height="11" transform="translate(0.5)" fill="#1A1A1A"/>
<path d="M9.20833 5.04199H2.79167C2.28541 5.04199 1.875 5.4524 1.875 5.95866V9.16699C1.875 9.67325 2.28541 10.0837 2.79167 10.0837H9.20833C9.71459 10.0837 10.125 9.67325 10.125 9.16699V5.95866C10.125 5.4524 9.71459 5.04199 9.20833 5.04199Z" stroke="white" stroke-width="0.916667" stroke-linecap="round" stroke-linejoin="round"/>
<path d="M3.70825 5.04199V3.20866C3.70825 2.60087 3.94969 2.01798 4.37947 1.58821C4.80924 1.15843 5.39213 0.916992 5.99992 0.916992C6.60771 0.916992 7.1906 1.15843 7.62037 1.58821C8.05014 2.01798 8.29159 2.60087 8.29159 3.20866V5.04199" stroke="white" stroke-width="0.916667" stroke-linecap="round" stroke-linejoin="round"/>
</svg>
