<svg width="41" height="41" viewBox="0 0 41 41" fill="none" xmlns="http://www.w3.org/2000/svg">
<path d="M16.7272 19.2576C16.7272 18.2388 17.5237 17.3939 18.4843 17.3939H21.4127V14.2879C21.4127 13.2691 22.2092 12.4242 23.1698 12.4242C24.1303 12.4242 24.9268 13.2691 24.9268 14.2879V17.3939H27.8553C28.8158 17.3939 29.6123 18.2388 29.6123 19.2576C29.6123 20.2764 28.8158 21.1212 27.8553 21.1212H24.9268V24.2273C24.9268 25.2461 24.1303 26.0909 23.1698 26.0909C22.2092 26.0909 21.4127 25.2461 21.4127 24.2273V21.1212H18.4843C17.5237 21.1212 16.7272 20.2764 16.7272 19.2576ZM18.742 37.2727C18.742 39.3352 17.1723 41 15.2278 41C13.2834 41 11.7137 39.3352 11.7137 37.2727C11.7137 35.2103 13.2834 33.5455 15.2278 33.5455C17.1723 33.5455 18.742 35.2103 18.742 37.2727ZM33.9698 37.2727C33.9698 39.3352 32.4002 41 30.4557 41C28.5112 41 26.9416 39.3352 26.9416 37.2727C26.9416 35.2103 28.5112 33.5455 30.4557 33.5455C32.4002 33.5455 33.9698 35.2103 33.9698 37.2727ZM40.9512 9.76545L36.2657 29.6442C36.1713 30.0493 35.9514 30.4091 35.6414 30.6659C35.3313 30.9227 34.9489 31.0617 34.5555 31.0606H11.128C10.2847 31.0606 9.5584 30.4145 9.39441 29.52L4.96662 3.72727H1.75706C0.796534 3.72727 0 2.88242 0 1.86364C0 0.844849 0.796534 0 1.75706 0H6.44255C7.28594 0 8.01219 0.64606 8.17618 1.54061L9.18356 7.45455H39.241C39.5074 7.45573 39.7701 7.52082 40.0095 7.64494C40.2488 7.76906 40.4586 7.94899 40.6231 8.17127C40.7876 8.39355 40.9025 8.65241 40.9594 8.92848C41.0162 9.20456 41.0134 9.49069 40.9512 9.76545ZM36.992 11.1818H9.81611L12.5805 27.3333H33.1733L36.9685 11.1818H36.992Z" fill="black"/>
</svg>
